<mxfile host="app.diagrams.net" agent="Mozilla/5.0 (X11; Linux x86_64; rv:137.0) Gecko/20100101 Firefox/137.0" version="26.2.14">
  <diagram id="C5RBs43oDa-KdzZeNtuy" name="Page-1">
    <mxGraphModel dx="747" dy="475" grid="1" gridSize="10" guides="1" tooltips="1" connect="1" arrows="1" fold="1" page="1" pageScale="1" pageWidth="827" pageHeight="1169" math="0" shadow="0">
      <root>
        <mxCell id="WIyWlLk6GJQsqaUBKTNV-0" />
        <mxCell id="WIyWlLk6GJQsqaUBKTNV-1" parent="WIyWlLk6GJQsqaUBKTNV-0" />
        <mxCell id="oTVazniePbBmQfR-mN2Z-4" value="" style="edgeStyle=orthogonalEdgeStyle;rounded=0;orthogonalLoop=1;jettySize=auto;html=1;" edge="1" parent="WIyWlLk6GJQsqaUBKTNV-1" target="oTVazniePbBmQfR-mN2Z-3">
          <mxGeometry relative="1" as="geometry">
            <mxPoint x="140" y="190" as="sourcePoint" />
          </mxGeometry>
        </mxCell>
        <mxCell id="oTVazniePbBmQfR-mN2Z-6" value="" style="edgeStyle=orthogonalEdgeStyle;rounded=0;orthogonalLoop=1;jettySize=auto;html=1;" edge="1" parent="WIyWlLk6GJQsqaUBKTNV-1" source="oTVazniePbBmQfR-mN2Z-3" target="oTVazniePbBmQfR-mN2Z-5">
          <mxGeometry relative="1" as="geometry">
            <Array as="points">
              <mxPoint x="300" y="190" />
              <mxPoint x="300" y="190" />
            </Array>
          </mxGeometry>
        </mxCell>
        <mxCell id="oTVazniePbBmQfR-mN2Z-3" value="Distillery" style="whiteSpace=wrap;html=1;aspect=fixed;" vertex="1" parent="WIyWlLk6GJQsqaUBKTNV-1">
          <mxGeometry x="180" y="150" width="80" height="80" as="geometry" />
        </mxCell>
        <mxCell id="oTVazniePbBmQfR-mN2Z-14" value="" style="edgeStyle=orthogonalEdgeStyle;rounded=0;orthogonalLoop=1;jettySize=auto;html=1;" edge="1" parent="WIyWlLk6GJQsqaUBKTNV-1" source="oTVazniePbBmQfR-mN2Z-5" target="oTVazniePbBmQfR-mN2Z-13">
          <mxGeometry relative="1" as="geometry" />
        </mxCell>
        <mxCell id="oTVazniePbBmQfR-mN2Z-5" value="&lt;div&gt;CR&lt;/div&gt;" style="whiteSpace=wrap;html=1;aspect=fixed;" vertex="1" parent="WIyWlLk6GJQsqaUBKTNV-1">
          <mxGeometry x="300" y="150" width="80" height="80" as="geometry" />
        </mxCell>
        <mxCell id="oTVazniePbBmQfR-mN2Z-11" value="Raw Oil" style="ellipse;whiteSpace=wrap;html=1;aspect=fixed;" vertex="1" parent="WIyWlLk6GJQsqaUBKTNV-1">
          <mxGeometry x="60" y="150" width="80" height="80" as="geometry" />
        </mxCell>
        <mxCell id="oTVazniePbBmQfR-mN2Z-36" value="" style="edgeStyle=orthogonalEdgeStyle;rounded=0;orthogonalLoop=1;jettySize=auto;html=1;" edge="1" parent="WIyWlLk6GJQsqaUBKTNV-1" source="oTVazniePbBmQfR-mN2Z-12" target="oTVazniePbBmQfR-mN2Z-5">
          <mxGeometry relative="1" as="geometry" />
        </mxCell>
        <mxCell id="oTVazniePbBmQfR-mN2Z-12" value="Hydrogen Cells" style="ellipse;whiteSpace=wrap;html=1;aspect=fixed;" vertex="1" parent="WIyWlLk6GJQsqaUBKTNV-1">
          <mxGeometry x="414" y="150" width="80" height="80" as="geometry" />
        </mxCell>
        <mxCell id="oTVazniePbBmQfR-mN2Z-13" value="&lt;div&gt;Mixer&lt;/div&gt;" style="whiteSpace=wrap;html=1;aspect=fixed;" vertex="1" parent="WIyWlLk6GJQsqaUBKTNV-1">
          <mxGeometry x="300" y="270" width="80" height="80" as="geometry" />
        </mxCell>
        <mxCell id="oTVazniePbBmQfR-mN2Z-22" value="" style="edgeStyle=orthogonalEdgeStyle;rounded=0;orthogonalLoop=1;jettySize=auto;html=1;" edge="1" parent="WIyWlLk6GJQsqaUBKTNV-1" source="oTVazniePbBmQfR-mN2Z-20" target="oTVazniePbBmQfR-mN2Z-21">
          <mxGeometry relative="1" as="geometry" />
        </mxCell>
        <mxCell id="oTVazniePbBmQfR-mN2Z-20" value="Oilsands" style="ellipse;whiteSpace=wrap;html=1;aspect=fixed;" vertex="1" parent="WIyWlLk6GJQsqaUBKTNV-1">
          <mxGeometry x="60" y="610" width="80" height="80" as="geometry" />
        </mxCell>
        <mxCell id="oTVazniePbBmQfR-mN2Z-24" value="" style="edgeStyle=orthogonalEdgeStyle;rounded=0;orthogonalLoop=1;jettySize=auto;html=1;" edge="1" parent="WIyWlLk6GJQsqaUBKTNV-1" source="oTVazniePbBmQfR-mN2Z-21" target="oTVazniePbBmQfR-mN2Z-23">
          <mxGeometry relative="1" as="geometry" />
        </mxCell>
        <mxCell id="oTVazniePbBmQfR-mN2Z-21" value="Centrifuge" style="whiteSpace=wrap;html=1;aspect=fixed;" vertex="1" parent="WIyWlLk6GJQsqaUBKTNV-1">
          <mxGeometry x="180" y="610" width="80" height="80" as="geometry" />
        </mxCell>
        <mxCell id="oTVazniePbBmQfR-mN2Z-31" value="" style="edgeStyle=orthogonalEdgeStyle;rounded=0;orthogonalLoop=1;jettySize=auto;html=1;" edge="1" parent="WIyWlLk6GJQsqaUBKTNV-1" source="oTVazniePbBmQfR-mN2Z-23" target="oTVazniePbBmQfR-mN2Z-26">
          <mxGeometry relative="1" as="geometry" />
        </mxCell>
        <mxCell id="oTVazniePbBmQfR-mN2Z-23" value="Distillery" style="whiteSpace=wrap;html=1;aspect=fixed;" vertex="1" parent="WIyWlLk6GJQsqaUBKTNV-1">
          <mxGeometry x="300" y="610" width="80" height="80" as="geometry" />
        </mxCell>
        <mxCell id="oTVazniePbBmQfR-mN2Z-43" value="" style="edgeStyle=orthogonalEdgeStyle;rounded=0;orthogonalLoop=1;jettySize=auto;html=1;" edge="1" parent="WIyWlLk6GJQsqaUBKTNV-1" source="oTVazniePbBmQfR-mN2Z-26" target="oTVazniePbBmQfR-mN2Z-41">
          <mxGeometry relative="1" as="geometry" />
        </mxCell>
        <mxCell id="oTVazniePbBmQfR-mN2Z-26" value="&lt;div&gt;CR&lt;/div&gt;" style="whiteSpace=wrap;html=1;aspect=fixed;" vertex="1" parent="WIyWlLk6GJQsqaUBKTNV-1">
          <mxGeometry x="300" y="500" width="80" height="80" as="geometry" />
        </mxCell>
        <mxCell id="oTVazniePbBmQfR-mN2Z-34" value="" style="edgeStyle=orthogonalEdgeStyle;rounded=0;orthogonalLoop=1;jettySize=auto;html=1;" edge="1" parent="WIyWlLk6GJQsqaUBKTNV-1" source="oTVazniePbBmQfR-mN2Z-28" target="oTVazniePbBmQfR-mN2Z-26">
          <mxGeometry relative="1" as="geometry" />
        </mxCell>
        <mxCell id="oTVazniePbBmQfR-mN2Z-28" value="Hydrogen Cells" style="ellipse;whiteSpace=wrap;html=1;aspect=fixed;" vertex="1" parent="WIyWlLk6GJQsqaUBKTNV-1">
          <mxGeometry x="420" y="500" width="80" height="80" as="geometry" />
        </mxCell>
        <mxCell id="oTVazniePbBmQfR-mN2Z-29" style="edgeStyle=orthogonalEdgeStyle;rounded=0;orthogonalLoop=1;jettySize=auto;html=1;entryX=1;entryY=0.5;entryDx=0;entryDy=0;" edge="1" parent="WIyWlLk6GJQsqaUBKTNV-1" source="oTVazniePbBmQfR-mN2Z-30" target="oTVazniePbBmQfR-mN2Z-28">
          <mxGeometry relative="1" as="geometry">
            <Array as="points">
              <mxPoint x="580" y="540" />
            </Array>
          </mxGeometry>
        </mxCell>
        <mxCell id="oTVazniePbBmQfR-mN2Z-30" value="Electrolyser" style="whiteSpace=wrap;html=1;aspect=fixed;" vertex="1" parent="WIyWlLk6GJQsqaUBKTNV-1">
          <mxGeometry x="540" y="300" width="80" height="80" as="geometry" />
        </mxCell>
        <mxCell id="oTVazniePbBmQfR-mN2Z-38" value="" style="endArrow=classic;html=1;rounded=0;exitX=1;exitY=1;exitDx=0;exitDy=0;entryX=0;entryY=0;entryDx=0;entryDy=0;" edge="1" parent="WIyWlLk6GJQsqaUBKTNV-1" source="oTVazniePbBmQfR-mN2Z-5" target="oTVazniePbBmQfR-mN2Z-30">
          <mxGeometry width="50" height="50" relative="1" as="geometry">
            <mxPoint x="420" y="390" as="sourcePoint" />
            <mxPoint x="470" y="340" as="targetPoint" />
          </mxGeometry>
        </mxCell>
        <mxCell id="oTVazniePbBmQfR-mN2Z-39" value="" style="endArrow=classic;html=1;rounded=0;exitX=1;exitY=0;exitDx=0;exitDy=0;entryX=0;entryY=1;entryDx=0;entryDy=0;" edge="1" parent="WIyWlLk6GJQsqaUBKTNV-1" source="oTVazniePbBmQfR-mN2Z-26" target="oTVazniePbBmQfR-mN2Z-30">
          <mxGeometry width="50" height="50" relative="1" as="geometry">
            <mxPoint x="390" y="240" as="sourcePoint" />
            <mxPoint x="550" y="310" as="targetPoint" />
          </mxGeometry>
        </mxCell>
        <mxCell id="oTVazniePbBmQfR-mN2Z-40" style="edgeStyle=orthogonalEdgeStyle;rounded=0;orthogonalLoop=1;jettySize=auto;html=1;entryX=1;entryY=0.5;entryDx=0;entryDy=0;exitX=0.5;exitY=0;exitDx=0;exitDy=0;" edge="1" parent="WIyWlLk6GJQsqaUBKTNV-1" source="oTVazniePbBmQfR-mN2Z-30" target="oTVazniePbBmQfR-mN2Z-12">
          <mxGeometry relative="1" as="geometry">
            <Array as="points">
              <mxPoint x="580" y="190" />
            </Array>
            <mxPoint x="590" y="390" as="sourcePoint" />
            <mxPoint x="510" y="500" as="targetPoint" />
          </mxGeometry>
        </mxCell>
        <mxCell id="oTVazniePbBmQfR-mN2Z-42" value="" style="edgeStyle=orthogonalEdgeStyle;rounded=0;orthogonalLoop=1;jettySize=auto;html=1;" edge="1" parent="WIyWlLk6GJQsqaUBKTNV-1" source="oTVazniePbBmQfR-mN2Z-41" target="oTVazniePbBmQfR-mN2Z-13">
          <mxGeometry relative="1" as="geometry" />
        </mxCell>
        <mxCell id="oTVazniePbBmQfR-mN2Z-41" value="Fluid Tank" style="whiteSpace=wrap;html=1;aspect=fixed;" vertex="1" parent="WIyWlLk6GJQsqaUBKTNV-1">
          <mxGeometry x="300" y="380" width="80" height="80" as="geometry" />
        </mxCell>
      </root>
    </mxGraphModel>
  </diagram>
</mxfile>
